<mxfile host="app.diagrams.net" modified="2023-12-30T18:04:11.801Z" agent="Mozilla/5.0 (X11; Linux x86_64) AppleWebKit/537.36 (KHTML, like Gecko) Chrome/120.0.0.0 Safari/537.36" etag="EVcI0E-6vOBiwLVIi4ae" version="22.1.13" type="github">
  <diagram name="Page-1" id="xJrh6TtOlhQOdyJ-ihzE">
    <mxGraphModel dx="968" dy="513" grid="1" gridSize="10" guides="1" tooltips="1" connect="1" arrows="1" fold="1" page="1" pageScale="1" pageWidth="827" pageHeight="1169" math="0" shadow="0">
      <root>
        <mxCell id="0" />
        <mxCell id="1" parent="0" />
        <mxCell id="vXX-cWwVUvY3zPLMKONI-1" value="Resturant Finder" style="swimlane;whiteSpace=wrap;html=1;" vertex="1" parent="1">
          <mxGeometry x="90" y="60" width="560" height="1530" as="geometry" />
        </mxCell>
        <mxCell id="vXX-cWwVUvY3zPLMKONI-2" value="user" style="swimlane;whiteSpace=wrap;html=1;" vertex="1" parent="vXX-cWwVUvY3zPLMKONI-1">
          <mxGeometry y="20" width="560" height="1510" as="geometry" />
        </mxCell>
        <mxCell id="vXX-cWwVUvY3zPLMKONI-4" value="" style="ellipse;html=1;shape=startState;fillColor=#000000;strokeColor=#ff0000;" vertex="1" parent="vXX-cWwVUvY3zPLMKONI-2">
          <mxGeometry x="140" y="50" width="30" height="30" as="geometry" />
        </mxCell>
        <mxCell id="vXX-cWwVUvY3zPLMKONI-5" value="" style="edgeStyle=orthogonalEdgeStyle;html=1;verticalAlign=bottom;endArrow=open;endSize=8;strokeColor=#ff0000;rounded=0;entryX=0.621;entryY=0.025;entryDx=0;entryDy=0;entryPerimeter=0;" edge="1" source="vXX-cWwVUvY3zPLMKONI-4" parent="vXX-cWwVUvY3zPLMKONI-2" target="vXX-cWwVUvY3zPLMKONI-6">
          <mxGeometry relative="1" as="geometry">
            <mxPoint x="95" y="140" as="targetPoint" />
          </mxGeometry>
        </mxCell>
        <mxCell id="vXX-cWwVUvY3zPLMKONI-6" value="Login" style="rounded=1;whiteSpace=wrap;html=1;arcSize=40;fontColor=#000000;fillColor=#ffffc0;strokeColor=#ff0000;" vertex="1" parent="vXX-cWwVUvY3zPLMKONI-2">
          <mxGeometry x="80" y="140" width="120" height="40" as="geometry" />
        </mxCell>
        <mxCell id="vXX-cWwVUvY3zPLMKONI-13" value="" style="edgeStyle=orthogonalEdgeStyle;rounded=0;orthogonalLoop=1;jettySize=auto;html=1;" edge="1" parent="vXX-cWwVUvY3zPLMKONI-2" source="vXX-cWwVUvY3zPLMKONI-10" target="vXX-cWwVUvY3zPLMKONI-12">
          <mxGeometry relative="1" as="geometry" />
        </mxCell>
        <mxCell id="vXX-cWwVUvY3zPLMKONI-16" value="" style="edgeStyle=orthogonalEdgeStyle;rounded=0;orthogonalLoop=1;jettySize=auto;html=1;entryX=1;entryY=0.5;entryDx=0;entryDy=0;exitX=1;exitY=0.5;exitDx=0;exitDy=0;" edge="1" parent="vXX-cWwVUvY3zPLMKONI-2" source="vXX-cWwVUvY3zPLMKONI-10" target="vXX-cWwVUvY3zPLMKONI-6">
          <mxGeometry relative="1" as="geometry">
            <mxPoint x="290" y="150" as="targetPoint" />
            <Array as="points">
              <mxPoint x="180" y="260" />
              <mxPoint x="270" y="260" />
              <mxPoint x="270" y="160" />
            </Array>
          </mxGeometry>
        </mxCell>
        <mxCell id="vXX-cWwVUvY3zPLMKONI-10" value="" style="rhombus;whiteSpace=wrap;html=1;" vertex="1" parent="vXX-cWwVUvY3zPLMKONI-2">
          <mxGeometry x="100" y="230" width="80" height="80" as="geometry" />
        </mxCell>
        <mxCell id="vXX-cWwVUvY3zPLMKONI-11" value="" style="endArrow=classic;html=1;rounded=0;entryX=0.5;entryY=0;entryDx=0;entryDy=0;exitX=0.5;exitY=1;exitDx=0;exitDy=0;" edge="1" parent="vXX-cWwVUvY3zPLMKONI-2" source="vXX-cWwVUvY3zPLMKONI-6" target="vXX-cWwVUvY3zPLMKONI-10">
          <mxGeometry width="50" height="50" relative="1" as="geometry">
            <mxPoint x="170" y="160" as="sourcePoint" />
            <mxPoint x="220" y="110" as="targetPoint" />
          </mxGeometry>
        </mxCell>
        <mxCell id="vXX-cWwVUvY3zPLMKONI-12" value="main search page" style="whiteSpace=wrap;html=1;" vertex="1" parent="vXX-cWwVUvY3zPLMKONI-2">
          <mxGeometry x="80" y="390" width="120" height="60" as="geometry" />
        </mxCell>
        <mxCell id="vXX-cWwVUvY3zPLMKONI-17" value="invalid email and password" style="text;html=1;align=center;verticalAlign=middle;resizable=0;points=[];autosize=1;strokeColor=none;fillColor=none;" vertex="1" parent="vXX-cWwVUvY3zPLMKONI-2">
          <mxGeometry x="280" y="200" width="170" height="30" as="geometry" />
        </mxCell>
        <mxCell id="vXX-cWwVUvY3zPLMKONI-14" value="valid email and correct password" style="text;html=1;align=center;verticalAlign=middle;resizable=0;points=[];autosize=1;strokeColor=none;fillColor=none;" vertex="1" parent="vXX-cWwVUvY3zPLMKONI-2">
          <mxGeometry x="150" y="330" width="200" height="30" as="geometry" />
        </mxCell>
        <mxCell id="vXX-cWwVUvY3zPLMKONI-35" value="" style="html=1;shape=mxgraph.sysml.actFinal;strokeWidth=2;verticalLabelPosition=bottom;verticalAlignment=top;" vertex="1" parent="vXX-cWwVUvY3zPLMKONI-2">
          <mxGeometry x="75" y="1230" width="40" height="40" as="geometry" />
        </mxCell>
        <mxCell id="vXX-cWwVUvY3zPLMKONI-21" value="" style="edgeStyle=orthogonalEdgeStyle;rounded=0;orthogonalLoop=1;jettySize=auto;html=1;" edge="1" parent="vXX-cWwVUvY3zPLMKONI-1" source="vXX-cWwVUvY3zPLMKONI-18" target="vXX-cWwVUvY3zPLMKONI-20">
          <mxGeometry relative="1" as="geometry" />
        </mxCell>
        <mxCell id="vXX-cWwVUvY3zPLMKONI-18" value="Search for a Resturant" style="whiteSpace=wrap;html=1;" vertex="1" parent="vXX-cWwVUvY3zPLMKONI-1">
          <mxGeometry x="35" y="550" width="120" height="60" as="geometry" />
        </mxCell>
        <mxCell id="vXX-cWwVUvY3zPLMKONI-19" value="" style="edgeStyle=orthogonalEdgeStyle;rounded=0;orthogonalLoop=1;jettySize=auto;html=1;" edge="1" parent="vXX-cWwVUvY3zPLMKONI-1" source="vXX-cWwVUvY3zPLMKONI-12" target="vXX-cWwVUvY3zPLMKONI-18">
          <mxGeometry relative="1" as="geometry" />
        </mxCell>
        <mxCell id="vXX-cWwVUvY3zPLMKONI-23" value="" style="edgeStyle=orthogonalEdgeStyle;rounded=0;orthogonalLoop=1;jettySize=auto;html=1;" edge="1" parent="vXX-cWwVUvY3zPLMKONI-1" source="vXX-cWwVUvY3zPLMKONI-20" target="vXX-cWwVUvY3zPLMKONI-22">
          <mxGeometry relative="1" as="geometry" />
        </mxCell>
        <mxCell id="vXX-cWwVUvY3zPLMKONI-29" value="" style="edgeStyle=orthogonalEdgeStyle;rounded=0;orthogonalLoop=1;jettySize=auto;html=1;" edge="1" parent="vXX-cWwVUvY3zPLMKONI-1" source="vXX-cWwVUvY3zPLMKONI-20" target="vXX-cWwVUvY3zPLMKONI-28">
          <mxGeometry relative="1" as="geometry" />
        </mxCell>
        <mxCell id="vXX-cWwVUvY3zPLMKONI-20" value="" style="rhombus;whiteSpace=wrap;html=1;" vertex="1" parent="vXX-cWwVUvY3zPLMKONI-1">
          <mxGeometry x="55" y="680" width="80" height="80" as="geometry" />
        </mxCell>
        <mxCell id="vXX-cWwVUvY3zPLMKONI-22" value="Show the Error Page" style="whiteSpace=wrap;html=1;" vertex="1" parent="vXX-cWwVUvY3zPLMKONI-1">
          <mxGeometry x="275" y="690" width="120" height="60" as="geometry" />
        </mxCell>
        <mxCell id="vXX-cWwVUvY3zPLMKONI-24" value="no such resturant" style="text;html=1;align=center;verticalAlign=middle;resizable=0;points=[];autosize=1;strokeColor=none;fillColor=none;" vertex="1" parent="vXX-cWwVUvY3zPLMKONI-1">
          <mxGeometry x="155" y="680" width="120" height="30" as="geometry" />
        </mxCell>
        <mxCell id="vXX-cWwVUvY3zPLMKONI-25" value="" style="html=1;shape=mxgraph.sysml.flowFinal;strokeWidth=2;verticalLabelPosition=bottom;verticalAlignment=top;" vertex="1" parent="vXX-cWwVUvY3zPLMKONI-1">
          <mxGeometry x="480" y="700" width="40" height="40" as="geometry" />
        </mxCell>
        <mxCell id="vXX-cWwVUvY3zPLMKONI-26" value="" style="endArrow=classic;html=1;rounded=0;entryX=0;entryY=0.5;entryDx=0;entryDy=0;entryPerimeter=0;exitX=1;exitY=0.5;exitDx=0;exitDy=0;" edge="1" parent="vXX-cWwVUvY3zPLMKONI-1" source="vXX-cWwVUvY3zPLMKONI-22" target="vXX-cWwVUvY3zPLMKONI-25">
          <mxGeometry width="50" height="50" relative="1" as="geometry">
            <mxPoint x="170" y="590" as="sourcePoint" />
            <mxPoint x="220" y="540" as="targetPoint" />
          </mxGeometry>
        </mxCell>
        <mxCell id="vXX-cWwVUvY3zPLMKONI-32" value="" style="edgeStyle=orthogonalEdgeStyle;rounded=0;orthogonalLoop=1;jettySize=auto;html=1;" edge="1" parent="vXX-cWwVUvY3zPLMKONI-1" source="vXX-cWwVUvY3zPLMKONI-28" target="vXX-cWwVUvY3zPLMKONI-31">
          <mxGeometry relative="1" as="geometry" />
        </mxCell>
        <mxCell id="vXX-cWwVUvY3zPLMKONI-28" value="see details about the restaurant" style="whiteSpace=wrap;html=1;" vertex="1" parent="vXX-cWwVUvY3zPLMKONI-1">
          <mxGeometry x="35" y="850" width="120" height="60" as="geometry" />
        </mxCell>
        <mxCell id="vXX-cWwVUvY3zPLMKONI-30" value="resturaunt exists" style="text;html=1;align=center;verticalAlign=middle;resizable=0;points=[];autosize=1;strokeColor=none;fillColor=none;" vertex="1" parent="vXX-cWwVUvY3zPLMKONI-1">
          <mxGeometry x="-10" y="768" width="110" height="30" as="geometry" />
        </mxCell>
        <mxCell id="vXX-cWwVUvY3zPLMKONI-34" value="" style="edgeStyle=orthogonalEdgeStyle;rounded=0;orthogonalLoop=1;jettySize=auto;html=1;" edge="1" parent="vXX-cWwVUvY3zPLMKONI-1" source="vXX-cWwVUvY3zPLMKONI-31" target="vXX-cWwVUvY3zPLMKONI-33">
          <mxGeometry relative="1" as="geometry" />
        </mxCell>
        <mxCell id="vXX-cWwVUvY3zPLMKONI-31" value="View Menu" style="whiteSpace=wrap;html=1;" vertex="1" parent="vXX-cWwVUvY3zPLMKONI-1">
          <mxGeometry x="35" y="990" width="120" height="60" as="geometry" />
        </mxCell>
        <mxCell id="vXX-cWwVUvY3zPLMKONI-36" value="" style="edgeStyle=orthogonalEdgeStyle;rounded=0;orthogonalLoop=1;jettySize=auto;html=1;" edge="1" parent="vXX-cWwVUvY3zPLMKONI-1" source="vXX-cWwVUvY3zPLMKONI-33" target="vXX-cWwVUvY3zPLMKONI-35">
          <mxGeometry relative="1" as="geometry" />
        </mxCell>
        <mxCell id="vXX-cWwVUvY3zPLMKONI-33" value="Calculate cost for the order" style="whiteSpace=wrap;html=1;" vertex="1" parent="vXX-cWwVUvY3zPLMKONI-1">
          <mxGeometry x="35" y="1130" width="120" height="60" as="geometry" />
        </mxCell>
      </root>
    </mxGraphModel>
  </diagram>
</mxfile>
